<svg width="132" height="29" viewBox="0 0 132 29" fill="none" xmlns="http://www.w3.org/2000/svg">
<path d="M10.3641 15.3392C10.3641 14.5848 10.2612 14.0448 10.0555 13.719C9.84976 13.3932 9.52401 13.1961 9.07824 13.1275C8.63247 13.0589 8.04097 13.0418 7.30374 13.0761L5.42637 13.1532V19.0425C5.42637 19.5054 5.4178 19.8997 5.40065 20.2255C5.40065 20.5513 5.38351 20.8256 5.34922 21.0485L10.2612 20.9713C11.0156 20.9542 11.6671 20.8341 12.2158 20.6113C12.7644 20.3712 13.193 19.9598 13.5016 19.3768C13.8102 18.7939 13.9645 17.9967 13.9645 16.9851H14.8389L14.6846 22H1.41446V21.1513C2.06596 21.117 2.51173 20.9713 2.75176 20.7141C2.99179 20.4398 3.12038 20.0712 3.13752 19.6083C3.17181 19.1282 3.18896 18.5882 3.18896 17.9881V6.87817C3.18896 6.53528 3.19753 6.20952 3.21467 5.90091C3.23182 5.57516 3.24896 5.2837 3.26611 5.02652C2.9575 5.04367 2.64889 5.06081 2.34028 5.07796C2.03167 5.0951 1.72307 5.11225 1.41446 5.12939V3.99783H13.7845L13.9131 8.49837H13.0644C13.0644 7.48682 12.9101 6.72387 12.6015 6.20952C12.2929 5.67803 11.8729 5.32656 11.3414 5.15511C10.827 4.96651 10.2441 4.88079 9.59259 4.89794L7.38089 4.94937C6.74653 4.96651 6.29219 5.08653 6.01787 5.30941C5.74355 5.5323 5.5721 5.86662 5.50352 6.31239C5.45209 6.74101 5.42637 7.3068 5.42637 8.00974V12.1245L10.2612 12.1502L10.0812 9.93854H11.2128V15.3392H10.3641ZM22.4017 22.4115C21.5444 22.4115 20.7815 22.2915 20.1128 22.0514C19.4442 21.8286 18.8955 21.5714 18.4669 21.2799L18.5698 22.18H17.4896L17.3353 17.7566H18.1326C18.1669 18.4596 18.364 19.0939 18.7241 19.6597C19.0841 20.2084 19.547 20.637 20.1128 20.9456C20.6786 21.2542 21.2872 21.4085 21.9387 21.4085C22.3845 21.4085 22.8217 21.3399 23.2503 21.2028C23.679 21.0485 24.039 20.8256 24.3305 20.5341C24.6219 20.2255 24.7677 19.8397 24.7677 19.3768C24.7677 18.8968 24.6219 18.5024 24.3305 18.1938C24.0561 17.8681 23.6875 17.5852 23.2246 17.3452C22.7617 17.1051 22.2645 16.8822 21.733 16.6765C21.2187 16.4708 20.7043 16.2564 20.19 16.0336C19.6756 15.8107 19.1956 15.5449 18.7498 15.2363C18.3212 14.9277 17.9783 14.5505 17.7211 14.1048C17.4639 13.659 17.3353 13.1104 17.3353 12.4588C17.3353 12.0988 17.4039 11.7045 17.5411 11.2758C17.6782 10.8472 17.9097 10.4443 18.2354 10.0671C18.5612 9.6728 19.007 9.35562 19.5727 9.11559C20.1385 8.85841 20.8586 8.72983 21.733 8.72983C22.1959 8.72983 22.7103 8.80698 23.276 8.96128C23.8418 9.11559 24.3905 9.40705 24.922 9.83567L24.8705 8.85841H25.9507V13.359H25.1277C25.0934 12.7589 24.9562 12.1845 24.7162 11.6359C24.4762 11.0701 24.1247 10.6072 23.6618 10.2472C23.1989 9.86996 22.5988 9.68137 21.8616 9.68137C21.0729 9.68137 20.4557 9.87854 20.0099 10.2729C19.5642 10.6672 19.3413 11.1215 19.3413 11.6359C19.3413 12.1674 19.5042 12.6132 19.8299 12.9732C20.1728 13.3161 20.61 13.6161 21.1415 13.8733C21.673 14.1305 22.2388 14.3791 22.8389 14.6191C23.4904 14.8934 24.1247 15.1935 24.7419 15.5192C25.3592 15.845 25.8649 16.2564 26.2593 16.7537C26.6536 17.2337 26.8508 17.8595 26.8508 18.631C26.8508 19.4883 26.6279 20.1998 26.1821 20.7656C25.7535 21.3313 25.1963 21.7428 24.5105 22C23.8418 22.2743 23.1389 22.4115 22.4017 22.4115ZM35.309 22.4115C34.1603 22.4115 33.0973 22.1543 32.12 21.64C31.1599 21.1085 30.3884 20.3541 29.8054 19.3768C29.2397 18.3824 28.9568 17.1908 28.9568 15.8021C28.9568 14.9106 29.1197 14.0448 29.4454 13.2047C29.7712 12.3646 30.2255 11.6102 30.8084 10.9415C31.4085 10.2557 32.12 9.71566 32.943 9.32133C33.7659 8.92699 34.6746 8.72983 35.669 8.72983C36.6291 8.72983 37.4607 8.87556 38.1636 9.16702C38.8837 9.45849 39.4409 9.84425 39.8352 10.3243C40.2296 10.8044 40.4267 11.3273 40.4267 11.8931C40.4267 12.2703 40.3239 12.596 40.1181 12.8703C39.9124 13.1275 39.6123 13.2561 39.218 13.2561C38.7894 13.2732 38.4808 13.1446 38.2922 12.8703C38.1207 12.5789 38.035 12.3217 38.035 12.0988C38.035 11.9274 38.0607 11.7559 38.1122 11.5845C38.1636 11.3959 38.2665 11.2244 38.4208 11.0701C38.2836 10.6586 38.0436 10.3586 37.7007 10.17C37.3578 9.96426 36.9977 9.83567 36.6206 9.78424C36.2605 9.71566 35.9605 9.68137 35.7204 9.68137C34.5546 9.68137 33.5688 10.1529 32.7629 11.0958C31.9743 12.0217 31.5799 13.3761 31.5799 15.1592C31.5799 16.3079 31.76 17.328 32.12 18.2195C32.4972 19.1111 33.0201 19.814 33.6888 20.3284C34.3574 20.8256 35.1289 21.0742 36.0033 21.0742C36.8092 21.0742 37.5807 20.8599 38.3179 20.4312C39.0551 20.0026 39.6295 19.4797 40.041 18.8625L40.7096 19.3768C40.2639 20.0969 39.7238 20.6798 39.0894 21.1256C38.4722 21.5714 37.8293 21.8971 37.1606 22.1029C36.5091 22.3086 35.8919 22.4115 35.309 22.4115ZM50.4893 22C50.4378 21.7085 50.4035 21.4514 50.3864 21.2285C50.3692 21.0056 50.3435 20.7741 50.3092 20.5341C49.7263 21.117 49.092 21.5799 48.4062 21.9228C47.7375 22.2486 47.026 22.4115 46.2716 22.4115C44.9686 22.4115 43.9999 22.12 43.3655 21.5371C42.7312 20.937 42.414 20.2084 42.414 19.3511C42.414 18.5624 42.654 17.8852 43.1341 17.3194C43.6313 16.7365 44.2657 16.265 45.0372 15.905C45.8258 15.5278 46.6745 15.2535 47.5832 15.082C48.509 14.8934 49.4006 14.8077 50.2578 14.8248V13.2304C50.2578 12.6303 50.2064 12.0645 50.1035 11.533C50.0006 11.0015 49.7777 10.5643 49.4349 10.2214C49.092 9.87854 48.5433 9.69851 47.7889 9.68137C47.2917 9.66422 46.7774 9.75852 46.2459 9.96426C45.7315 10.17 45.3544 10.5215 45.1143 11.0187C45.2515 11.1558 45.3372 11.3187 45.3715 11.5073C45.4229 11.6788 45.4487 11.8416 45.4487 11.9959C45.4487 12.2017 45.3629 12.4417 45.1915 12.716C45.02 12.9732 44.72 13.0932 44.2914 13.0761C43.9313 13.0761 43.657 12.9561 43.4684 12.716C43.2798 12.4588 43.1855 12.1588 43.1855 11.8159C43.1855 11.233 43.3998 10.7101 43.8285 10.2472C44.2742 9.78424 44.8829 9.41562 45.6544 9.1413C46.4259 8.86699 47.3003 8.72983 48.2776 8.72983C49.7177 8.72983 50.7807 9.11559 51.4665 9.88711C52.1523 10.6415 52.4866 11.8416 52.4695 13.4875C52.4695 14.1219 52.4695 14.7648 52.4695 15.4163C52.4695 16.0507 52.4609 16.6936 52.4438 17.3452C52.4438 17.9795 52.4438 18.6224 52.4438 19.274C52.4438 19.5483 52.4352 19.8226 52.4181 20.0969C52.4009 20.3712 52.3752 20.6798 52.3409 21.0227C52.6495 21.0056 52.9496 20.9884 53.241 20.9713C53.5496 20.9542 53.8582 20.937 54.1669 20.9199V22H50.4893ZM50.2578 15.6992C49.6749 15.7164 49.0577 15.7935 48.4062 15.9307C47.7718 16.0507 47.1803 16.2393 46.6317 16.4965C46.1002 16.7537 45.663 17.0966 45.3201 17.5252C44.9943 17.9367 44.84 18.4424 44.8572 19.0425C44.8914 19.6769 45.0972 20.1569 45.4744 20.4827C45.8687 20.7913 46.3316 20.9456 46.8631 20.9456C47.5661 20.9456 48.1747 20.817 48.689 20.5598C49.2205 20.2855 49.7435 19.9083 50.2578 19.4283C50.2407 19.2397 50.2321 19.0339 50.2321 18.811C50.2321 18.5882 50.2321 18.3567 50.2321 18.1167C50.2321 18.0309 50.2321 17.7566 50.2321 17.2937C50.2492 16.8308 50.2578 16.2993 50.2578 15.6992ZM55.7002 28.5579V27.7864C56.2317 27.7864 56.6004 27.6493 56.8061 27.3749C57.0118 27.1178 57.1319 26.7491 57.1661 26.2691C57.2004 25.8062 57.2176 25.2661 57.2176 24.6489L57.269 12.2274C57.269 11.9531 57.269 11.6788 57.269 11.4044C57.2862 11.1301 57.3204 10.8472 57.3719 10.5558C57.0633 10.5729 56.7547 10.5901 56.4461 10.6072C56.1546 10.6243 55.8546 10.6415 55.5459 10.6586V9.5785C56.3003 9.5785 56.8661 9.54421 57.2433 9.47563C57.6376 9.40705 57.9205 9.32133 58.092 9.21846C58.2806 9.11559 58.4349 9.00414 58.5549 8.88413H59.3264C59.3435 9.05558 59.3607 9.26132 59.3778 9.50135C59.395 9.72423 59.4121 9.98141 59.4293 10.2729C59.9436 9.80996 60.5523 9.44134 61.2552 9.16702C61.9753 8.87556 62.6954 8.72983 63.4155 8.72983C64.4099 8.72983 65.3357 8.987 66.1929 9.50135C67.0502 10.0157 67.7446 10.7529 68.2761 11.713C68.8075 12.656 69.0733 13.7876 69.0733 15.1077C69.0733 16.5651 68.7647 17.8424 68.1475 18.9396C67.5474 20.0369 66.7502 20.8942 65.7557 21.5114C64.7613 22.1114 63.6812 22.4115 62.5154 22.4115C61.9153 22.4115 61.3581 22.3343 60.8437 22.18C60.3465 22.0429 59.875 21.8371 59.4293 21.5628V25.8319C59.4293 26.1748 59.4207 26.4748 59.4036 26.732C59.4036 27.0063 59.3778 27.2892 59.3264 27.5807C59.6007 27.5635 59.8665 27.5464 60.1236 27.5292C60.398 27.5292 60.6723 27.5207 60.9466 27.5035V28.5579H55.7002ZM62.4639 21.3828C63.2869 21.3828 63.9898 21.1342 64.5727 20.637C65.1728 20.1226 65.6272 19.4283 65.9358 18.5539C66.2615 17.6623 66.4244 16.6508 66.4244 15.5192C66.4244 14.5934 66.2872 13.7104 66.0129 12.8703C65.7557 12.0131 65.3357 11.3187 64.7528 10.7872C64.187 10.2557 63.4326 9.98998 62.4896 9.98998C61.9067 9.98998 61.3409 10.1357 60.7923 10.4272C60.2608 10.7015 59.815 11.0358 59.455 11.4302C59.455 11.4987 59.455 11.6016 59.455 11.7388C59.4721 11.8588 59.4807 12.0817 59.4807 12.4074C59.4807 12.716 59.4807 13.1875 59.4807 13.8219C59.4807 14.4391 59.4721 15.2792 59.455 16.3422C59.455 17.4052 59.455 18.751 59.455 20.3798C59.8836 20.7056 60.3465 20.9542 60.8437 21.1256C61.3581 21.2971 61.8981 21.3828 62.4639 21.3828ZM77.5004 22.4115C76.3174 22.4115 75.2458 22.1372 74.2857 21.5885C73.3427 21.0227 72.5969 20.2341 72.0483 19.2225C71.4996 18.1938 71.2253 16.9851 71.2253 15.5964C71.2253 14.3962 71.4911 13.2732 72.0226 12.2274C72.5712 11.1816 73.3341 10.3414 74.3114 9.70709C75.2887 9.05558 76.4202 8.72983 77.7061 8.72983C78.4262 8.72983 79.0948 8.84984 79.7121 9.08987C80.3464 9.31275 80.9036 9.66422 81.3837 10.1443C81.8637 10.6072 82.2409 11.1987 82.5153 11.9188C82.7896 12.6217 82.9267 13.4533 82.9267 14.4134L73.8742 14.5677C73.8742 15.8707 74.0114 17.0194 74.2857 18.0138C74.5772 18.9911 75.0401 19.754 75.6744 20.3027C76.3088 20.8341 77.1232 21.0999 78.1176 21.0999C78.6491 21.0999 79.1891 21.0056 79.7378 20.817C80.3036 20.6284 80.8265 20.3712 81.3065 20.0455C81.7866 19.7197 82.1724 19.3597 82.4638 18.9653L83.081 19.4797C82.6181 20.1998 82.0609 20.7741 81.4094 21.2028C80.7579 21.6314 80.0892 21.94 79.4034 22.1286C78.7177 22.3172 78.0833 22.4115 77.5004 22.4115ZM73.9514 13.4875H80.5093C80.5093 12.8703 80.415 12.2788 80.2264 11.713C80.055 11.1301 79.7635 10.6586 79.352 10.2986C78.9405 9.9214 78.4005 9.7328 77.7318 9.7328C76.7374 9.7328 75.9059 10.0328 75.2372 10.6329C74.5857 11.2158 74.1571 12.1674 73.9514 13.4875ZM87.2213 22.4115C86.827 22.4115 86.4755 22.2572 86.1669 21.9486C85.8755 21.6228 85.7297 21.2285 85.7297 20.7656C85.7297 20.3027 85.884 19.9083 86.1926 19.5826C86.5012 19.2568 86.8527 19.0939 87.247 19.0939C87.6757 19.0939 88.0271 19.2568 88.3015 19.5826C88.5929 19.9083 88.7387 20.3027 88.7387 20.7656C88.7387 21.2285 88.5844 21.6228 88.2757 21.9486C87.9671 22.2572 87.6157 22.4115 87.2213 22.4115Z" fill="white"/>
<path d="M94.1104 22.2427C94.6468 22.2427 95.1178 22.0962 95.5235 21.8032C95.9337 21.5057 96.1974 21.1067 96.3146 20.6064V19.3555C96.2921 19.3555 96.1546 19.3667 95.9022 19.3893C95.6543 19.4118 95.492 19.4253 95.4153 19.4299C94.4372 19.5155 93.7542 19.6755 93.3666 19.9099C92.9834 20.1443 92.7918 20.5207 92.7918 21.0391C92.7918 21.4358 92.909 21.7356 93.1434 21.9384C93.3778 22.1413 93.7001 22.2427 94.1104 22.2427ZM96.5648 23C96.4972 22.7115 96.4318 22.4005 96.3687 22.0669C95.9585 22.4771 95.5731 22.7611 95.2125 22.9189C94.8519 23.0766 94.4281 23.1555 93.9413 23.1555C93.2471 23.1555 92.6882 22.9752 92.2644 22.6146C91.8452 22.2495 91.6356 21.7266 91.6356 21.0459C91.6356 20.2886 91.9218 19.7274 92.4943 19.3622C93.0713 18.9971 93.9007 18.7695 94.9826 18.6793C95.1314 18.6658 95.3545 18.6478 95.652 18.6252C95.954 18.5982 96.1794 18.5779 96.3282 18.5644V17.9085C96.3282 17.3856 96.2065 16.9979 95.963 16.7455C95.7196 16.4931 95.3365 16.3668 94.8136 16.3668C94.0833 16.3668 93.3463 16.5471 92.6025 16.9078C92.58 16.8537 92.5214 16.6982 92.4267 16.4412C92.332 16.1798 92.2825 16.0445 92.2779 16.0355C92.607 15.8507 92.9969 15.7042 93.4477 15.596C93.903 15.4833 94.365 15.427 94.8338 15.427C95.7579 15.427 96.4228 15.6298 96.8285 16.0355C97.2387 16.4367 97.4438 17.1219 97.4438 18.0911V23H96.5648ZM99.1342 20.5252V15.5825H100.27V20.5388C100.27 20.8633 100.315 21.1383 100.405 21.3637C100.5 21.5891 100.633 21.7649 100.804 21.8911C100.98 22.0128 101.176 22.1007 101.393 22.1548C101.614 22.2089 101.866 22.2359 102.15 22.2359C102.736 22.2359 103.191 22.1075 103.516 21.8505C103.845 21.5936 104.009 21.1563 104.009 20.5388V15.5825H105.145V20.5252C105.145 20.9039 105.091 21.2442 104.983 21.5462C104.875 21.8483 104.728 22.1007 104.544 22.3036C104.363 22.5019 104.145 22.6664 103.888 22.7972C103.631 22.9279 103.358 23.0225 103.07 23.0811C102.786 23.1397 102.479 23.169 102.15 23.169C101.825 23.169 101.519 23.1397 101.23 23.0811C100.942 23.0225 100.667 22.9279 100.405 22.7972C100.148 22.6619 99.9254 22.4951 99.736 22.2968C99.5512 22.0939 99.4047 21.8415 99.2965 21.5395C99.1883 21.2375 99.1342 20.8994 99.1342 20.5252ZM109.196 23.1352C108.465 23.1352 107.947 22.9572 107.64 22.6011C107.334 22.245 107.172 21.6702 107.154 20.8768V16.4209H106.051L106.099 15.6772L107.147 15.5825L107.532 13.8853L108.276 13.8583V15.5825H110.338V16.4209H108.276V20.674C108.276 21.2375 108.362 21.6342 108.533 21.864C108.704 22.0939 108.997 22.2089 109.412 22.2089C109.561 22.2089 109.883 22.1728 110.379 22.1007L110.426 22.9932C109.89 23.0879 109.48 23.1352 109.196 23.1352ZM116.627 23V18.517C116.627 17.7733 116.507 17.2323 116.268 16.8942C116.034 16.5562 115.621 16.3871 115.031 16.3871C114.463 16.3871 113.983 16.5291 113.591 16.8131C113.203 17.0971 112.951 17.4645 112.833 17.9153C112.793 18.2533 112.772 18.6297 112.772 19.0444V23H111.643V12.702L112.772 12.6344V15.6501C112.772 15.907 112.763 16.2248 112.745 16.6035C113.381 15.8191 114.224 15.427 115.274 15.427C116.929 15.427 117.756 16.3984 117.756 18.3412V23H116.627ZM119.974 19.3081C119.974 20.1872 120.167 20.8926 120.555 21.4245C120.947 21.9519 121.518 22.2157 122.266 22.2157C123.005 22.2157 123.562 21.9519 123.936 21.4245C124.315 20.8971 124.504 20.1872 124.504 19.2946C124.504 18.3886 124.317 17.6763 123.943 17.1579C123.573 16.635 123.007 16.3736 122.246 16.3736C121.506 16.3736 120.943 16.6396 120.555 17.1715C120.167 17.7034 119.974 18.4156 119.974 19.3081ZM125.674 19.2879C125.674 20.4373 125.367 21.3704 124.754 22.0872C124.141 22.7994 123.294 23.1555 122.212 23.1555C121.17 23.1555 120.341 22.7949 119.723 22.0737C119.11 21.3524 118.804 20.4261 118.804 19.2946C118.804 18.1406 119.113 17.2075 119.73 16.4953C120.348 15.7831 121.195 15.427 122.273 15.427C123.332 15.427 124.164 15.7853 124.768 16.5021C125.372 17.2143 125.674 18.1429 125.674 19.2879ZM130.603 15.5149C130.806 15.5149 130.991 15.5284 131.157 15.5554L131.117 16.5967C130.909 16.5607 130.729 16.5426 130.576 16.5426C129.945 16.5426 129.431 16.7635 129.034 17.2053C128.642 17.6425 128.446 18.1857 128.446 18.8348V23H127.317C127.312 18.4472 127.31 15.9747 127.31 15.5825H128.25L128.358 16.9145C128.615 16.4953 128.942 16.1572 129.338 15.9003C129.735 15.6433 130.157 15.5149 130.603 15.5149Z" fill="white"/>
</svg>
