<svg width="560" height="48" viewBox="0 0 560 48" fill="none" xmlns="http://www.w3.org/2000/svg">
<rect x="0.5" y="0.5" width="47" height="47" rx="23.5" fill="#F7F7F7"/>
<rect x="0.5" y="0.5" width="47" height="47" rx="23.5" stroke="#D3D3D3" stroke-dasharray="4 4"/>
<path d="M35 31C35 31.5304 34.7893 32.0391 34.4142 32.4142C34.0391 32.7893 33.5304 33 33 33H15C14.4696 33 13.9609 32.7893 13.5858 32.4142C13.2107 32.0391 13 31.5304 13 31V20C13 19.4696 13.2107 18.9609 13.5858 18.5858C13.9609 18.2107 14.4696 18 15 18H19L21 15H27L29 18H33C33.5304 18 34.0391 18.2107 34.4142 18.5858C34.7893 18.9609 35 19.4696 35 20V31Z" stroke="black" stroke-linecap="round" stroke-linejoin="round"/>
<path d="M24 29C26.2091 29 28 27.2091 28 25C28 22.7909 26.2091 21 24 21C21.7909 21 20 22.7909 20 25C20 27.2091 21.7909 29 24 29Z" stroke="black" stroke-linecap="round" stroke-linejoin="round"/>
<path d="M74.2812 18.4453V25.9453C74.2812 27.2734 73.9167 28.3099 73.1875 29.0547C72.4635 29.7995 71.3594 30.1719 69.875 30.1719C68.3906 30.1719 67.2943 29.7995 66.5859 29.0547C65.8776 28.3099 65.5234 27.2682 65.5234 25.9297V18.4453H66.8828V25.9531C66.8828 27 67.1302 27.7708 67.625 28.2656C68.1198 28.7604 68.8854 29.0078 69.9219 29.0078C70.9323 29.0078 71.6849 28.7578 72.1797 28.2578C72.6797 27.7578 72.9297 26.987 72.9297 25.9453V18.4453H74.2812ZM76.6562 33.7188V21.4297H77.8047L77.9297 22.5938C78.6797 21.6979 79.5807 21.25 80.6328 21.25C81.4141 21.25 82.0755 21.4453 82.6172 21.8359C83.1589 22.2266 83.5573 22.7552 83.8125 23.4219C84.0729 24.0885 84.2031 24.8672 84.2031 25.7578C84.2031 26.612 84.0625 27.3724 83.7812 28.0391C83.5 28.7005 83.0859 29.224 82.5391 29.6094C81.9974 29.9896 81.362 30.1797 80.6328 30.1797C80.0807 30.1797 79.5625 30.0573 79.0781 29.8125C78.5938 29.5625 78.2057 29.2344 77.9141 28.8281C77.9453 29.3906 77.9609 29.9375 77.9609 30.4688V33.6328L76.6562 33.7188ZM80.4531 29.0781C80.849 29.0781 81.2031 28.9896 81.5156 28.8125C81.8281 28.6302 82.0807 28.3828 82.2734 28.0703C82.4661 27.7578 82.612 27.4036 82.7109 27.0078C82.8099 26.6068 82.8594 26.1745 82.8594 25.7109C82.8594 24.7318 82.6536 23.9297 82.2422 23.3047C81.8307 22.6745 81.2292 22.3594 80.4375 22.3594C78.7812 22.3594 77.9531 23.4297 77.9531 25.5703C77.9531 26.7318 78.1458 27.6068 78.5312 28.1953C78.9219 28.7839 79.5625 29.0781 80.4531 29.0781ZM88.3516 30.1562C87.5182 30.1562 86.9271 29.9323 86.5781 29.4844C86.2344 29.0365 86.0625 28.2578 86.0625 27.1484V18.1016L87.3594 18.0234V26.6328C87.3594 26.987 87.362 27.2708 87.3672 27.4844C87.3776 27.6979 87.3984 27.9089 87.4297 28.1172C87.4609 28.3203 87.5026 28.474 87.5547 28.5781C87.6068 28.6823 87.6823 28.7786 87.7812 28.8672C87.8802 28.9505 87.9974 29.0078 88.1328 29.0391C88.2734 29.0651 88.4453 29.0781 88.6484 29.0781C88.8151 29.0781 89.1432 29.0469 89.6328 28.9844L89.7031 30.0234C89.1667 30.112 88.7161 30.1562 88.3516 30.1562ZM91.4531 25.7344C91.4531 26.75 91.6771 27.5651 92.125 28.1797C92.5781 28.7891 93.237 29.0938 94.1016 29.0938C94.9557 29.0938 95.599 28.7891 96.0312 28.1797C96.4688 27.5703 96.6875 26.75 96.6875 25.7188C96.6875 24.6719 96.4714 23.849 96.0391 23.25C95.612 22.6458 94.9583 22.3438 94.0781 22.3438C93.224 22.3438 92.5729 22.651 92.125 23.2656C91.6771 23.8802 91.4531 24.7031 91.4531 25.7344ZM98.0391 25.7109C98.0391 27.0391 97.6849 28.1172 96.9766 28.9453C96.2682 29.7682 95.2891 30.1797 94.0391 30.1797C92.8359 30.1797 91.8776 29.763 91.1641 28.9297C90.4557 28.0964 90.1016 27.026 90.1016 25.7188C90.1016 24.3854 90.4583 23.3073 91.1719 22.4844C91.8854 21.6615 92.8646 21.25 94.1094 21.25C95.3333 21.25 96.2943 21.6641 96.9922 22.4922C97.6901 23.3151 98.0391 24.388 98.0391 25.7109ZM102.242 29.125C102.862 29.125 103.406 28.9557 103.875 28.6172C104.349 28.2734 104.654 27.8125 104.789 27.2344V25.7891C104.763 25.7891 104.604 25.8021 104.312 25.8281C104.026 25.8542 103.839 25.8698 103.75 25.875C102.62 25.974 101.831 26.1589 101.383 26.4297C100.94 26.7005 100.719 27.1354 100.719 27.7344C100.719 28.1927 100.854 28.5391 101.125 28.7734C101.396 29.0078 101.768 29.125 102.242 29.125ZM105.078 30C105 29.6667 104.924 29.3073 104.852 28.9219C104.378 29.3958 103.932 29.724 103.516 29.9062C103.099 30.0885 102.609 30.1797 102.047 30.1797C101.245 30.1797 100.599 29.9714 100.109 29.5547C99.625 29.1328 99.3828 28.5286 99.3828 27.7422C99.3828 26.8672 99.7135 26.2188 100.375 25.7969C101.042 25.375 102 25.112 103.25 25.0078C103.422 24.9922 103.68 24.9714 104.023 24.9453C104.372 24.9141 104.633 24.8906 104.805 24.875V24.1172C104.805 23.513 104.664 23.0651 104.383 22.7734C104.102 22.4818 103.659 22.3359 103.055 22.3359C102.211 22.3359 101.359 22.5443 100.5 22.9609C100.474 22.8984 100.406 22.7188 100.297 22.4219C100.188 22.1198 100.13 21.9635 100.125 21.9531C100.505 21.7396 100.956 21.5703 101.477 21.4453C102.003 21.3151 102.536 21.25 103.078 21.25C104.146 21.25 104.914 21.4844 105.383 21.9531C105.857 22.4167 106.094 23.2083 106.094 24.3281V30H105.078ZM111.688 29.0547C112.547 29.0547 113.185 28.7786 113.602 28.2266C114.023 27.6745 114.234 26.8854 114.234 25.8594C114.234 24.7031 114.031 23.8333 113.625 23.25C113.224 22.6615 112.573 22.3672 111.672 22.3672C111.271 22.3672 110.917 22.4531 110.609 22.625C110.302 22.7969 110.055 23.0365 109.867 23.3438C109.68 23.651 109.536 24.0052 109.438 24.4062C109.344 24.8021 109.297 25.237 109.297 25.7109C109.297 26.3776 109.378 26.9557 109.539 27.4453C109.706 27.9349 109.971 28.3255 110.336 28.6172C110.701 28.9089 111.151 29.0547 111.688 29.0547ZM114.258 28.7578C113.977 29.1901 113.602 29.5339 113.133 29.7891C112.664 30.0443 112.141 30.1719 111.562 30.1719C110.432 30.1719 109.547 29.7708 108.906 28.9688C108.266 28.1615 107.945 27.0651 107.945 25.6797C107.945 24.3568 108.271 23.2891 108.922 22.4766C109.573 21.6589 110.445 21.25 111.539 21.25C112.107 21.25 112.641 21.375 113.141 21.625C113.646 21.8698 114.023 22.2005 114.273 22.6172L114.25 21.875V18.1016L115.539 18.0234V30H114.43L114.258 28.7578Z" fill="#2E2E2E"/>
</svg>
