<?xml version="1.0" standalone="no"?>
<!DOCTYPE svg PUBLIC "-//W3C//DTD SVG 20010904//EN"
 "http://www.w3.org/TR/2001/REC-SVG-20010904/DTD/svg10.dtd">
<svg version="1.0" xmlns="http://www.w3.org/2000/svg"
 width="89.000000pt" height="26.000000pt" viewBox="0 0 89.000000 26.000000"
 preserveAspectRatio="xMidYMid meet">

<g transform="translate(0.000000,26.000000) scale(0.100000,-0.100000)"
fill="#000000" stroke="none">
<path d="M15 160 l0 -90 63 0 c61 0 62 0 61 28 0 26 -1 26 -9 4 -8 -18 -17
-22 -50 -22 l-40 0 0 41 c0 40 1 41 30 37 25 -4 30 -1 29 16 0 12 -3 15 -6 9
-2 -7 -16 -13 -29 -13 -22 0 -25 4 -22 33 3 27 7 32 33 35 19 3 33 -2 42 -14
12 -17 13 -16 13 4 0 20 -5 22 -57 22 l-58 0 0 -90z"/>
<path d="M177 193 c-19 -18 -5 -50 28 -66 40 -19 47 -47 12 -47 -13 0 -28 5
-35 12 -9 9 -12 8 -12 -5 0 -12 8 -17 29 -17 70 0 83 37 26 71 -36 21 -45 43
-22 52 8 4 6 6 -4 6 -9 1 -19 -2 -22 -6z"/>
<path d="M231 183 c7 -10 15 -20 16 -22 2 -2 3 5 3 17 0 14 -6 22 -16 22 -14
0 -15 -3 -3 -17z"/>
<path d="M305 180 c-21 -24 -24 -72 -5 -94 17 -22 74 -20 91 2 13 15 12 16 -3
4 -26 -20 -61 -11 -72 19 -12 34 -1 76 22 82 14 4 14 5 1 6 -9 0 -24 -8 -34
-19z"/>
<path d="M368 193 c6 -2 12 -11 12 -19 0 -8 5 -14 10 -14 6 0 10 4 10 8 0 12
-22 32 -34 31 -6 0 -5 -3 2 -6z"/>
<path d="M437 193 c-11 -10 -8 -33 3 -33 6 0 10 6 10 14 0 8 6 17 13 19 8 4 6
6 -4 6 -9 1 -19 -2 -22 -6z"/>
<path d="M488 188 c19 -19 15 -48 -7 -48 -10 0 -29 -8 -42 -18 -29 -25 -20
-52 18 -51 27 0 27 1 6 9 -13 5 -23 13 -23 18 0 14 23 32 43 32 14 0 18 -6 15
-27 -2 -24 1 -28 22 -30 14 -1 19 0 13 3 -8 3 -13 24 -13 49 0 54 -8 75 -28
75 -12 0 -13 -3 -4 -12z"/>
<path d="M565 99 c0 -83 3 -99 15 -99 12 0 15 8 12 35 -4 33 -3 35 26 35 55 0
88 59 58 105 -14 21 -24 24 -64 24 l-47 -2 0 -98z m83 79 c13 -13 16 -56 6
-82 -4 -10 -18 -16 -35 -16 -28 0 -29 2 -29 48 0 27 3 52 7 55 10 11 38 8 51
-5z"/>
<path d="M726 178 c-34 -48 -7 -108 48 -108 20 0 39 7 47 18 11 14 11 15 -1 5
-32 -29 -80 -8 -80 34 0 21 5 23 45 23 48 0 55 9 29 34 -23 24 -70 20 -88 -6z
m74 -3 c0 -10 -10 -15 -30 -15 -29 0 -38 9 -23 23 13 13 53 7 53 -8z"/>
<path d="M860 85 c0 -9 5 -15 11 -13 6 2 11 8 11 13 0 5 -5 11 -11 13 -6 2
-11 -4 -11 -13z"/>
</g>
</svg>
